<svg xmlns="http://www.w3.org/2000/svg" xmlns:xlink="http://www.w3.org/1999/xlink" width="1000" zoomAndPan="magnify" viewBox="0 0 750 374.999991" height="500" preserveAspectRatio="xMidYMid meet" version="1.0"><defs><g/></defs><g fill="#000000" fill-opacity="1"><g transform="translate(-18.592965, 238.793411)"><g><path d="M 88.882812 -92.53125 L 58.125 -92.53125 L 58.125 -80.019531 L 124.59375 0 L 158.738281 0 L 101.132812 -68.550781 C 132.414062 -74.027344 148.3125 -98.527344 148.3125 -124.332031 C 148.3125 -153.265625 128.503906 -184.804688 88.882812 -184.804688 L 22.417969 -184.804688 L 22.417969 0 L 48.480469 0 L 48.480469 -158.21875 L 88.882812 -158.21875 C 111.039062 -158.21875 121.988281 -139.972656 121.988281 -124.332031 C 121.988281 -108.433594 111.039062 -92.53125 88.882812 -92.53125 Z M 88.882812 -92.53125 "/></g></g></g><g fill="#000000" fill-opacity="1"><g transform="translate(206.091192, 238.793411)"><g><path d="M 98.527344 -78.976562 L 98.527344 -183.761719 L 22.9375 -183.761719 L 22.9375 -159.78125 L 72.203125 -159.78125 L 72.203125 -78.976562 C 72.203125 -44.832031 58.125 -23.457031 11.207031 -23.457031 C 8.339844 -23.457031 5.214844 -23.457031 2.085938 -23.71875 L 2.085938 1.042969 C 4.691406 1.042969 7.558594 1.304688 9.90625 1.304688 C 74.285156 1.304688 98.527344 -26.847656 98.527344 -78.976562 Z M 98.527344 -78.976562 "/></g></g></g><path stroke-linecap="butt" transform="matrix(-23.25774, 0.0316723, -0.0313101, -22.99177, 742.555328, 302.99837)" fill="none" stroke-linejoin="miter" d="M 0.0000276449 -0.0000708698 L 31.69932 -0.0000672222 " stroke="#000000" stroke-width="1" stroke-opacity="1" stroke-miterlimit="4"/><g fill="#000000" fill-opacity="1"><g transform="translate(646.727319, 238.793411)"><g><path d="M 98.527344 -78.976562 L 98.527344 -183.761719 L 22.9375 -183.761719 L 22.9375 -159.78125 L 72.203125 -159.78125 L 72.203125 -78.976562 C 72.203125 -44.832031 58.125 -23.457031 11.207031 -23.457031 C 8.339844 -23.457031 5.214844 -23.457031 2.085938 -23.71875 L 2.085938 1.042969 C 4.691406 1.042969 7.558594 1.304688 9.90625 1.304688 C 74.285156 1.304688 98.527344 -26.847656 98.527344 -78.976562 Z M 98.527344 -78.976562 "/></g></g></g><g fill="#000000" fill-opacity="1"><g transform="translate(386.910951, 238.793411)"><g><path d="M 22.417969 0 L 48.742188 0 L 48.742188 -128.503906 L 96.441406 -57.605469 L 111.300781 -57.605469 L 159 -128.503906 L 159 0 L 185.066406 0 L 185.066406 -182.457031 L 164.210938 -182.457031 L 104 -93.835938 L 43.789062 -182.457031 L 22.417969 -182.457031 Z M 22.417969 0 "/></g></g></g></svg>