<svg xmlns="http://www.w3.org/2000/svg" xmlns:xlink="http://www.w3.org/1999/xlink" width="500" zoomAndPan="magnify" viewBox="0 0 375 374.999991" height="500" preserveAspectRatio="xMidYMid meet" version="1.0"><defs><g/><clipPath id="id1"><path d="M 53.589844 54.875 L 318.632812 54.875 L 318.632812 319.914062 L 53.589844 319.914062 Z M 53.589844 54.875 " clip-rule="nonzero"/></clipPath></defs><g clip-path="url(#id1)"><path fill="#000000" d="M 186.113281 319.914062 C 150.730469 319.914062 117.414062 306.144531 92.414062 281.089844 C 67.363281 256.089844 53.589844 222.773438 53.589844 187.394531 C 53.589844 152.011719 67.363281 118.695312 92.414062 93.699219 C 117.414062 68.644531 150.730469 54.875 186.113281 54.875 C 221.492188 54.875 254.808594 68.644531 279.808594 93.699219 C 304.863281 118.75 318.632812 152.011719 318.632812 187.394531 C 318.632812 222.773438 304.863281 256.089844 279.808594 281.089844 C 254.808594 306.144531 221.492188 319.914062 186.113281 319.914062 M 186.113281 62.816406 C 152.847656 62.816406 121.546875 75.792969 98.03125 99.3125 C 74.511719 122.828125 61.535156 154.132812 61.535156 187.394531 C 61.535156 220.65625 74.511719 251.960938 98.03125 275.476562 C 121.546875 298.992188 152.847656 311.96875 186.113281 311.96875 C 219.375 311.96875 250.675781 298.992188 274.195312 275.476562 C 297.710938 251.960938 310.6875 220.65625 310.6875 187.394531 C 310.6875 154.132812 297.710938 122.828125 274.195312 99.3125 C 250.675781 75.792969 219.375 62.816406 186.113281 62.816406 " fill-opacity="1" fill-rule="nonzero"/></g><g fill="#000000" fill-opacity="1"><g transform="translate(101.30048, 203.961626)"><g><path d="M 19.222656 -20.011719 L 12.570312 -20.011719 L 12.570312 -17.308594 L 26.949219 0 L 34.332031 0 L 21.875 -14.828125 C 28.640625 -16.011719 32.078125 -21.308594 32.078125 -26.890625 C 32.078125 -33.148438 27.792969 -39.96875 19.222656 -39.96875 L 4.847656 -39.96875 L 4.847656 0 L 10.484375 0 L 10.484375 -34.21875 L 19.222656 -34.21875 C 24.015625 -34.21875 26.382812 -30.273438 26.382812 -26.890625 C 26.382812 -23.453125 24.015625 -20.011719 19.222656 -20.011719 Z M 19.222656 -20.011719 "/></g></g></g><g fill="#000000" fill-opacity="1"><g transform="translate(149.888534, 203.961626)"><g><path d="M 21.308594 -17.082031 L 21.308594 -39.746094 L 4.960938 -39.746094 L 4.960938 -34.558594 L 15.617188 -34.558594 L 15.617188 -17.082031 C 15.617188 -9.695312 12.570312 -5.074219 2.425781 -5.074219 C 1.804688 -5.074219 1.128906 -5.074219 0.449219 -5.128906 L 0.449219 0.226562 C 1.015625 0.226562 1.636719 0.28125 2.140625 0.28125 C 16.066406 0.28125 21.308594 -5.808594 21.308594 -17.082031 Z M 21.308594 -17.082031 "/></g></g></g><path stroke-linecap="butt" transform="matrix(-5.261579, -0.000000000000000644, 0.000000000000000643, -5.25, 265.911959, 218.414911)" fill="none" stroke-linejoin="miter" d="M 0.000342633 0.000161668 L 30.363437 0.000161668 " stroke="#000000" stroke-width="1" stroke-opacity="1" stroke-miterlimit="4"/><g fill="#000000" fill-opacity="1"><g transform="translate(245.19469, 203.961626)"><g><path d="M 21.308594 -17.082031 L 21.308594 -39.746094 L 4.960938 -39.746094 L 4.960938 -34.558594 L 15.617188 -34.558594 L 15.617188 -17.082031 C 15.617188 -9.695312 12.570312 -5.074219 2.425781 -5.074219 C 1.804688 -5.074219 1.128906 -5.074219 0.449219 -5.128906 L 0.449219 0.226562 C 1.015625 0.226562 1.636719 0.28125 2.140625 0.28125 C 16.066406 0.28125 21.308594 -5.808594 21.308594 -17.082031 Z M 21.308594 -17.082031 "/></g></g></g><g fill="#000000" fill-opacity="1"><g transform="translate(188.998454, 203.961626)"><g><path d="M 4.847656 0 L 10.542969 0 L 10.542969 -27.792969 L 20.859375 -12.460938 L 24.074219 -12.460938 L 34.390625 -27.792969 L 34.390625 0 L 40.027344 0 L 40.027344 -39.464844 L 35.515625 -39.464844 L 22.492188 -20.296875 L 9.472656 -39.464844 L 4.847656 -39.464844 Z M 4.847656 0 "/></g></g></g></svg>