<svg xmlns="http://www.w3.org/2000/svg" xmlns:xlink="http://www.w3.org/1999/xlink" width="500" zoomAndPan="magnify" viewBox="0 0 375 374.999991" height="500" preserveAspectRatio="xMidYMid meet" version="1.0"><defs><g/></defs><g fill="#ffffff" fill-opacity="1"><g transform="translate(23.77674, 222.838769)"><g><path d="M 37.148438 -38.671875 L 24.292969 -38.671875 L 24.292969 -33.445312 L 52.070312 0 L 66.34375 0 L 42.269531 -28.652344 C 55.339844 -30.9375 61.984375 -41.179688 61.984375 -51.964844 C 61.984375 -64.054688 53.707031 -77.238281 37.148438 -77.238281 L 9.367188 -77.238281 L 9.367188 0 L 20.261719 0 L 20.261719 -66.125 L 37.148438 -66.125 C 46.40625 -66.125 50.984375 -58.5 50.984375 -51.964844 C 50.984375 -45.316406 46.40625 -38.671875 37.148438 -38.671875 Z M 37.148438 -38.671875 "/></g></g></g><g fill="#ffffff" fill-opacity="1"><g transform="translate(117.685374, 222.838769)"><g><path d="M 41.179688 -33.007812 L 41.179688 -76.800781 L 9.585938 -76.800781 L 9.585938 -66.777344 L 30.175781 -66.777344 L 30.175781 -33.007812 C 30.175781 -18.738281 24.292969 -9.804688 4.683594 -9.804688 C 3.484375 -9.804688 2.179688 -9.804688 0.871094 -9.914062 L 0.871094 0.4375 C 1.960938 0.4375 3.160156 0.542969 4.140625 0.542969 C 31.046875 0.542969 41.179688 -11.21875 41.179688 -33.007812 Z M 41.179688 -33.007812 "/></g></g></g><path stroke-linecap="butt" transform="matrix(-9.757038, 0.0132871, -0.0137533, -10.099412, 341.896446, 249.789418)" fill="none" stroke-linejoin="miter" d="M 0.000196198 0.0000354579 L 31.593177 -0.000172052 " stroke="#ffffff" stroke-width="1" stroke-opacity="1" stroke-miterlimit="4"/><g fill="#ffffff" fill-opacity="1"><g transform="translate(301.850814, 222.838769)"><g><path d="M 41.179688 -33.007812 L 41.179688 -76.800781 L 9.585938 -76.800781 L 9.585938 -66.777344 L 30.175781 -66.777344 L 30.175781 -33.007812 C 30.175781 -18.738281 24.292969 -9.804688 4.683594 -9.804688 C 3.484375 -9.804688 2.179688 -9.804688 0.871094 -9.914062 L 0.871094 0.4375 C 1.960938 0.4375 3.160156 0.542969 4.140625 0.542969 C 31.046875 0.542969 41.179688 -11.21875 41.179688 -33.007812 Z M 41.179688 -33.007812 "/></g></g></g><g fill="#ffffff" fill-opacity="1"><g transform="translate(193.259641, 222.838769)"><g><path d="M 9.367188 0 L 20.371094 0 L 20.371094 -53.707031 L 40.308594 -24.074219 L 46.515625 -24.074219 L 66.453125 -53.707031 L 66.453125 0 L 77.34375 0 L 77.34375 -76.257812 L 68.628906 -76.257812 L 43.464844 -39.21875 L 18.300781 -76.257812 L 9.367188 -76.257812 Z M 9.367188 0 "/></g></g></g></svg>