<svg xmlns="http://www.w3.org/2000/svg" xmlns:xlink="http://www.w3.org/1999/xlink" width="1000" zoomAndPan="magnify" viewBox="0 0 750 374.999991" height="500" preserveAspectRatio="xMidYMid meet" version="1.0"><defs><g/></defs><g fill="#ffffff" fill-opacity="1"><g transform="translate(-18.595539, 238.663511)"><g><path d="M 88.878906 -92.527344 L 58.125 -92.527344 L 58.125 -80.019531 L 124.589844 0 L 158.734375 0 L 101.128906 -68.550781 C 132.40625 -74.023438 148.308594 -98.523438 148.308594 -124.328125 C 148.308594 -153.257812 128.496094 -184.796875 88.878906 -184.796875 L 22.414062 -184.796875 L 22.414062 0 L 48.480469 0 L 48.480469 -158.210938 L 88.878906 -158.210938 C 111.035156 -158.210938 121.980469 -139.964844 121.980469 -124.328125 C 121.980469 -108.429688 111.035156 -92.527344 88.878906 -92.527344 Z M 88.878906 -92.527344 "/></g></g></g><g fill="#ffffff" fill-opacity="1"><g transform="translate(206.091192, 238.663511)"><g><path d="M 98.523438 -78.976562 L 98.523438 -183.753906 L 22.9375 -183.753906 L 22.9375 -159.773438 L 72.199219 -159.773438 L 72.199219 -78.976562 C 72.199219 -44.832031 58.125 -23.457031 11.207031 -23.457031 C 8.339844 -23.457031 5.214844 -23.457031 2.085938 -23.71875 L 2.085938 1.042969 C 4.691406 1.042969 7.558594 1.304688 9.90625 1.304688 C 74.285156 1.304688 98.523438 -26.847656 98.523438 -78.976562 Z M 98.523438 -78.976562 "/></g></g></g><path stroke-linecap="butt" transform="matrix(-23.344788, 0.0317909, -0.0329064, -24.163955, 742.540928, 303.145967)" fill="none" stroke-linejoin="miter" d="M 0.0000798371 0.0000595342 L 31.593387 0.0000790764 " stroke="#ffffff" stroke-width="1" stroke-opacity="1" stroke-miterlimit="4"/><g fill="#ffffff" fill-opacity="1"><g transform="translate(646.727319, 238.663511)"><g><path d="M 98.523438 -78.976562 L 98.523438 -183.753906 L 22.9375 -183.753906 L 22.9375 -159.773438 L 72.199219 -159.773438 L 72.199219 -78.976562 C 72.199219 -44.832031 58.125 -23.457031 11.207031 -23.457031 C 8.339844 -23.457031 5.214844 -23.457031 2.085938 -23.71875 L 2.085938 1.042969 C 4.691406 1.042969 7.558594 1.304688 9.90625 1.304688 C 74.285156 1.304688 98.523438 -26.847656 98.523438 -78.976562 Z M 98.523438 -78.976562 "/></g></g></g><g fill="#ffffff" fill-opacity="1"><g transform="translate(386.910951, 238.663511)"><g><path d="M 22.414062 0 L 48.742188 0 L 48.742188 -128.496094 L 96.4375 -57.601562 L 111.296875 -57.601562 L 158.992188 -128.496094 L 158.992188 0 L 185.058594 0 L 185.058594 -182.453125 L 164.207031 -182.453125 L 103.996094 -93.832031 L 43.789062 -182.453125 L 22.414062 -182.453125 Z M 22.414062 0 "/></g></g></g></svg>